<svg width="24" height="24" viewBox="0 0 24 24" fill="black" xmlns="http://www.w3.org/2000/svg" class="Icon_base_hxOG7qzk css-bsy80g ewy06ol0" size="20" mr=",,1"><path fill-rule="evenodd" clip-rule="evenodd" d="M4 2C2.89543 2 2 2.89543 2 4V16C2 17.1046 2.89543 18 4 18V21C4 21.7985 4.88343 22.265 5.53802 21.8432C5.58028 21.8159 5.61769 21.782 5.65292 21.7461L9.33333 18H20C21.1046 18 22 17.1046 22 16V4C22 2.89543 21.1046 2 20 2H4ZM6 16H4V4H20V16H8.66667L6 19V16ZM18 6H6V8H18V6ZM6 9H18V11H6V9ZM14 12H6V14H14V12Z"></path></svg>