<svg width="24" height="24" viewBox="0 0 24 24" fill="black" xmlns="http://www.w3.org/2000/svg" class="Icon_base_hxOG7qzk css-bsy80g ewy06ol0" size="20" mr=",,1"><path fill-rule="evenodd" clip-rule="evenodd" d="M9 7C9 5.34315 10.3431 4 12 4C13.6569 4 15 5.34315 15 7C15 8.65685 13.6569 10 12 10C10.3431 10 9 8.65685 9 7ZM12 2C9.23858 2 7 4.23858 7 7C7 9.76142 9.23858 12 12 12C14.7614 12 17 9.76142 17 7C17 4.23858 14.7614 2 12 2ZM4 22V18.2C4 17.6333 4.14583 17.1125 4.4375 16.6375C4.72917 16.1625 5.11667 15.8 5.6 15.55C6.63333 15.0333 7.68333 14.6458 8.75 14.3875C9.81667 14.1292 10.9 14 12 14C13.1 14 14.1833 14.1292 15.25 14.3875C16.3167 14.6458 17.3667 15.0333 18.4 15.55C18.8833 15.8 19.2708 16.1625 19.5625 16.6375C19.8542 17.1125 20 17.6333 20 18.2V22H18V20V19V18.2C18 18.0167 17.9542 17.85 17.8625 17.7C17.7708 17.55 17.65 17.4333 17.5 17.35C16.6 16.9 15.6917 16.5625 14.775 16.3375C13.8583 16.1125 12.9333 16 12 16C11.0667 16 10.1417 16.1125 9.225 16.3375C8.30833 16.5625 7.4 16.9 6.5 17.35C6.35 17.4333 6.22917 17.55 6.1375 17.7C6.04583 17.85 6 18.0167 6 18.2V19V20V22H4Z"></path></svg>