<svg xmlns="http://www.w3.org/2000/svg" viewBox="0 0 64 64" width="32" height="32" fill="#252525" class="Pictogram_base_hxOG7qzk"><path d="M11.04 22.4364H10.88C10.3467 22.3831 10.0267 21.8503 10.1334 21.3708L11.9467 9.91557C12.0534 9.38277 12.5334 9.00981 13.0667 9.11637C13.6 9.22293 13.9734 9.70245 13.8667 10.2352L12 21.6372C11.8934 22.1167 11.52 22.4364 11.04 22.4364Z"></path><path fill-rule="evenodd" clip-rule="evenodd" d="M19.6267 53.179C20.5867 53.4987 22.4533 54.1913 23.84 54.8839C26.1867 56.0561 26.2933 57.3881 26.2933 57.6545C26.2933 58.1873 25.8667 58.6135 25.3333 58.6135H8.21331C7.67998 58.6135 7.25331 58.1873 7.25331 57.6545C7.25331 57.3881 7.41331 56.0561 9.70665 54.8839C11.0933 54.1913 12.96 53.4987 13.92 53.179V35.7031C9.59998 35.2236 5.33331 31.3342 5.33331 23.3954C5.33331 19.506 9.01332 6.55894 9.17332 6.02614C9.27998 5.5999 9.65332 5.3335 10.08 5.3335H23.4133C23.84 5.3335 24.2133 5.5999 24.3733 6.02614C24.5333 6.55894 28.2133 19.506 28.2133 23.3954C28.2133 31.2809 23.8933 35.2236 19.6267 35.7031V53.179ZM22.72 7.25158H10.8267C10.0266 10.0221 7.25331 20.2519 7.19998 23.3954C7.19998 23.5553 7.21331 23.7151 7.22665 23.875C7.23998 24.0348 7.25331 24.1946 7.25331 24.3545H26.24C26.2933 24.0348 26.2933 23.7151 26.2933 23.3955C26.2933 20.4463 23.8053 11.2598 22.8811 7.84745C22.8203 7.62273 22.7661 7.42277 22.72 7.25158ZM26.0267 26.2726H7.51998C8.21331 30.3218 10.6133 33.8916 14.88 33.8916H18.6667C22.9333 33.8916 25.28 30.3218 26.0267 26.2726ZM10.4581 56.6326C10.4126 56.65 10.3796 56.6625 10.3466 56.6955V56.7487H23.36C23.3192 56.7284 23.2863 56.7158 23.2581 56.7051C23.2126 56.6877 23.1796 56.6751 23.1467 56.6422C21.3333 55.7364 18.56 54.7774 18.5067 54.7774H18.4533C18.4267 54.7507 18.4 54.7374 18.3733 54.7241C18.3467 54.7108 18.32 54.6975 18.2933 54.6708C18.2667 54.6442 18.24 54.6309 18.2133 54.6175C18.1867 54.6042 18.16 54.5909 18.1333 54.5643C18.1067 54.5376 18.0933 54.511 18.08 54.4844C18.0667 54.4577 18.0533 54.4311 18.0267 54.4044C17.9733 54.3512 17.92 54.2979 17.92 54.2446C17.8667 54.1913 17.8667 54.138 17.8667 54.0847C17.8133 53.9782 17.8133 53.9249 17.8133 53.8716V35.7564H15.8933V53.8183C15.8933 53.8808 15.875 53.9249 15.8599 53.9615C15.8491 53.9873 15.84 54.0094 15.84 54.0315C15.84 54.0581 15.8267 54.0847 15.8133 54.1114C15.8 54.138 15.7867 54.1647 15.7867 54.1913C15.76 54.2179 15.7467 54.2446 15.7333 54.2712C15.72 54.2979 15.7067 54.3245 15.68 54.3511C15.6533 54.3778 15.64 54.4044 15.6267 54.4311C15.6133 54.4577 15.6 54.4843 15.5733 54.511C15.5467 54.5376 15.52 54.5509 15.4933 54.5643C15.4667 54.5776 15.44 54.5909 15.4133 54.6175C15.36 54.6708 15.3067 54.7241 15.2533 54.7241H15.2C15.1467 54.7241 12.3733 55.6831 10.56 56.5889C10.5192 56.6093 10.4863 56.6218 10.4581 56.6326Z"></path><path fill-rule="evenodd" clip-rule="evenodd" d="M36.0533 51.6871C38.0266 50.8879 39.6266 48.1174 39.6266 45.2935C39.6266 43.3222 37.9199 35.49 37.7066 34.6375C37.5999 34.2113 37.2266 33.8916 36.7999 33.8916H29.1199C28.6933 33.8916 28.2666 34.2113 28.2133 34.6375C27.9999 35.5433 26.2933 43.3754 26.2933 45.2935C26.2933 48.1706 27.8933 50.8879 29.8666 51.6871L28.2133 57.3881C28.1066 57.6545 28.2133 57.9742 28.3733 58.2406C28.5333 58.4537 28.8533 58.6135 29.1199 58.6135H36.7466C37.0666 58.6135 37.3333 58.4537 37.4933 58.2406C37.6533 58.0275 37.7066 57.7078 37.6533 57.3881L36.0533 51.6871ZM29.9199 35.7564H35.9999C36.0509 35.9997 36.1067 36.2647 36.166 36.5464L36.1664 36.5482C36.6657 38.9193 37.415 42.4777 37.6533 44.3345H28.2666C28.5333 42.2566 29.3866 38.1007 29.9199 35.7564ZM28.2666 46.2526H37.6533C37.3333 48.3305 35.9466 50.0354 34.8799 50.0354H31.0933C29.9733 50.0354 28.5866 48.3305 28.2666 46.2526ZM30.3999 56.6954L31.7866 51.9535H34.1333L35.5199 56.6954H30.3999Z"></path><path fill-rule="evenodd" clip-rule="evenodd" d="M58.6666 20.5716C58.6666 20.5716 58.6666 20.6249 58.5599 20.6782L54.7733 52.0068C54.7733 52.3265 54.9333 54.3512 56.1599 54.9372C58.5066 56.1094 58.6133 57.4414 58.6133 57.7078C58.6133 58.2406 58.1866 58.6668 57.6533 58.6668H40.5332C39.9999 58.6668 39.5732 58.2406 39.5732 57.7078C39.5732 57.4414 39.7332 56.1094 42.0266 54.9372C43.2532 54.2979 43.4132 52.3265 43.4132 52.0068L39.6266 20.6782V6.29254C39.6266 5.75974 40.0532 5.3335 40.5866 5.3335H57.7066C58.2399 5.3335 58.6666 5.75974 58.6666 6.29254V20.5716ZM56.7466 11.0345V7.25158H41.5466V11.0345H56.7466ZM42.7199 56.6955H55.5733C55.5199 56.6955 55.4666 56.6422 55.4133 56.5889C53.7599 55.7364 53.2266 53.9782 53.0666 52.8593H45.2799C45.1199 53.9782 44.5866 55.7897 42.9332 56.5889C42.8925 56.6093 42.8595 56.6218 42.8314 56.6326C42.7858 56.65 42.7529 56.6625 42.7199 56.6955ZM45.2266 50.9945H53.0666L56.7999 20.465V12.9525H41.5466V20.465L45.2266 50.9945Z"></path></svg>