<svg xmlns="http://www.w3.org/2000/svg" viewBox="0 0 64 64" width="32" height="32" fill="#252525" class="Pictogram_base_hxOG7qzk"><path fill-rule="evenodd" clip-rule="evenodd" d="M14.7657 44.896L14.8251 44.9555C17.4994 47.3921 21.7189 48.9966 25.6411 48.9966C28.5531 48.9966 31.6434 48.1052 34.1394 46.6789V49.1155C32.7726 49.7692 31.3463 50.3041 29.92 50.6012V60.6446C29.92 61.2389 29.4446 61.7143 28.8503 61.7143H22.4914C21.8971 61.7143 21.4217 61.2389 21.4217 60.6446V50.6012C18.7474 50.0069 15.8354 48.7589 13.5177 46.6195L13.4583 46.5601C10.5463 43.9452 7.75314 42.6378 5.19771 42.6378H3.35542C2.76113 42.6378 2.28571 42.1623 2.28571 41.5681V11.8538C2.28571 11.2595 2.76113 10.7841 3.35542 10.7841H5.13828C7.69371 10.7841 10.4869 9.47662 13.3989 6.86177L13.4583 6.80234C17.1429 3.47434 22.1349 2.28577 25.6411 2.28577C29.1474 2.28577 34.1394 3.47434 37.824 6.80234C37.824 6.86177 37.8834 6.86177 37.8834 6.86177C40.7954 9.47662 43.5886 10.7841 46.144 10.7841H47.9269C48.5211 10.7841 48.9966 11.2595 48.9966 11.8538V34.0801H46.8571V12.8641H46.0846C42.9349 12.8641 39.7851 11.4378 36.4571 8.46634L36.3977 8.40691C33.7829 5.97034 29.6229 4.48462 25.7006 4.48462C21.7783 4.48462 17.5589 6.02977 14.8846 8.46634L14.8251 8.52577C11.4377 11.4972 8.28799 12.9235 5.19771 12.9235H4.42513V40.4389H5.13828C8.28799 40.4983 11.4377 41.9246 14.7657 44.896ZM23.5611 59.5749H27.7806V57.4355H23.5611V59.5749ZM23.5611 55.3555H27.84V50.9578L27.6619 50.9715C26.9575 51.026 26.3037 51.0766 25.7006 51.0766C25.0469 51.0766 24.3337 51.0766 23.5611 50.9578V55.3555Z"></path><path fill-rule="evenodd" clip-rule="evenodd" d="M20.5302 17.7967C16.5485 17.7967 15.2411 21.8973 15.2411 26.5921C15.2411 31.287 16.5485 35.5658 20.5302 35.5658C24.512 35.5658 25.8194 31.2275 25.8194 26.5327C25.8194 21.8378 24.4525 17.7967 20.5302 17.7967ZM20.5302 34.4961C17.9531 34.4961 17.9639 30.7463 17.9736 27.3791C17.9742 27.1747 17.9748 26.9711 17.9748 26.7704C17.9748 26.57 17.9742 26.3667 17.9736 26.1615C17.9639 22.7759 17.9527 18.8664 20.5302 18.8664C23.1077 18.8664 23.0965 22.7758 23.0868 26.1615V26.1632C23.0863 26.3678 23.0857 26.5706 23.0857 26.7704C23.0857 26.9102 23.0859 27.0511 23.0861 27.1928V27.2004C23.0907 30.6122 23.096 34.4961 20.5302 34.4961Z"></path><path d="M33.7235 32.7133V18.1533C33.7235 17.8561 33.6046 17.7967 33.3669 17.7967C33.2972 17.7967 33.0384 17.9551 32.6309 18.2046C31.6489 18.8057 29.8038 19.9353 27.6618 20.6493V21.719C29.9795 21.0653 30.2172 21.0653 30.336 21.0653C31.168 21.0653 31.2869 21.6595 31.2869 22.3727V32.7727C31.2869 33.783 30.9898 34.199 29.9795 34.199H28.9692V35.2687H36.2195V34.199H35.2092C34.0206 34.199 33.7235 33.783 33.7235 32.7133Z"></path><path d="M45.1932 42.9943C43.2779 42.9943 43.2849 45.9845 43.2908 48.5232C43.2911 48.6627 43.2914 48.8009 43.2914 48.9372C43.2914 49.073 43.2911 49.2102 43.2908 49.3483V49.3511C43.2849 51.8728 43.2782 54.7018 45.1932 54.7018C47.1081 54.7018 47.1015 51.8728 47.0955 49.3511V49.3483C47.0952 49.2102 47.0949 49.073 47.0949 48.9372C47.0949 48.8043 47.0952 48.6693 47.0955 48.5325C47.1014 46.0387 47.1087 42.9943 45.1932 42.9943Z"></path><path fill-rule="evenodd" clip-rule="evenodd" d="M37.2891 36.2194H60.6446C61.2388 36.2194 61.7143 36.6948 61.7143 37.2891V60.6445C61.7143 61.2388 61.2388 61.7143 60.6446 61.7143H37.2891C36.6948 61.7143 36.2194 61.2388 36.2194 60.6445V37.2891C36.2194 36.6948 36.6948 36.2194 37.2891 36.2194ZM41.2114 48.8183C41.2114 52.3245 42.2217 55.5931 45.1931 55.5931C48.1646 55.5931 49.1748 52.3245 49.1748 48.8183C49.1748 45.312 48.1646 42.2217 45.1931 42.2217C42.1623 42.2217 41.2114 45.312 41.2114 48.8183ZM51.4331 55.3554H56.7817V54.5234H56.0091C55.2366 54.5234 54.9988 54.2263 54.9988 53.4537V42.5188C54.9988 42.2811 54.9394 42.2217 54.7611 42.2217C54.7093 42.2217 54.5222 42.337 54.2259 42.5196C53.502 42.9656 52.1268 43.8129 50.4823 44.3611V45.1931C52.2651 44.6583 52.384 44.6583 52.5028 44.6583C53.1566 44.6583 53.216 45.0743 53.216 45.6685V53.4537C53.216 54.2263 52.9783 54.5234 52.2057 54.5234H51.4331V55.3554Z"></path></svg>