<svg xmlns="http://www.w3.org/2000/svg" viewBox="0 0 64 64" width="32" height="32" fill="#252525" class="Pictogram_base_hxOG7qzk"><path d="M21.5467 46.2492L15.7867 44.3306V32.5528L13.9201 31.9666L18.6667 27.1169L23.4134 34.8444L21.5467 34.2582V46.2492Z"></path><path fill-rule="evenodd" clip-rule="evenodd" d="M58.5799 15.3892C58.595 15.4107 58.6133 15.4365 58.6133 15.499C58.6666 15.6055 58.6666 15.7121 58.6666 15.8187V48.1145C58.6666 48.5408 58.4 48.8606 58.0266 49.0205L32.32 58.6133C32.2133 58.6666 32.1066 58.6666 32 58.6666C31.8933 58.6666 31.7866 58.6666 31.68 58.6133L5.97331 49.0738C5.59998 48.9139 5.33331 48.5408 5.33331 48.1678V15.8187C5.33331 15.7121 5.33331 15.6055 5.38665 15.5523V15.499C5.38665 15.4723 5.39998 15.459 5.41331 15.4457C5.42665 15.4323 5.43998 15.419 5.43998 15.3924C5.43998 15.3697 5.43998 15.3567 5.44407 15.3451C5.44961 15.3295 5.46264 15.3164 5.49331 15.2858L5.65331 15.1259C5.65331 15.0726 5.70665 15.0726 5.70665 15.0726C5.78473 14.9946 5.83424 14.9737 5.897 14.9472C5.91998 14.9375 5.94473 14.927 5.97331 14.9127L31.68 5.37322C31.8933 5.31993 32.1066 5.31993 32.32 5.37322L58.0266 14.8594C58.08 14.8861 58.12 14.9127 58.16 14.9394C58.2 14.966 58.24 14.9927 58.2933 15.0193C58.2933 15.0726 58.3466 15.0726 58.3466 15.0726L58.5066 15.2325C58.5066 15.2325 58.56 15.2858 58.56 15.3391C58.56 15.3612 58.5691 15.3741 58.5799 15.3892ZM54.9333 15.7654L32 7.29178L25.7066 9.63669L48.16 18.2169L54.9333 15.7654ZM7.25331 47.475L31.04 56.2684V25.7846L7.25331 17.1511V47.475ZM9.06665 15.7654L32 24.1325L40.3733 21.0415L18.0266 12.4612L9.06665 15.7654ZM32.96 56.2684L56.7467 47.475H56.8V17.1511L49.1733 19.9223V29.0888L41.5466 31.9666V22.6936L32.96 25.7846V56.2684Z"></path></svg>