<svg xmlns="http://www.w3.org/2000/svg" viewBox="0 0 64 64" width="32" height="32" fill="#252525" class="Pictogram_base_hxOG7qzk"><path fill-rule="evenodd" clip-rule="evenodd" d="M9.24416 58.0002C9.30856 57.965 9.37576 57.9297 9.44744 57.895C11.3262 56.9548 14.1875 55.9919 14.3126 55.9498L14.3166 55.9484C14.323 55.9464 14.3281 55.9427 14.3333 55.939C14.3382 55.9356 14.3431 55.9321 14.3491 55.9299C14.4078 55.9075 14.4584 55.8741 14.5099 55.8401L14.5367 55.8224C14.544 55.8177 14.5513 55.8131 14.5587 55.8086C14.5658 55.8043 14.5729 55.8 14.5801 55.7957L14.5801 55.7957C14.6157 55.7744 14.651 55.7532 14.6812 55.725C14.7155 55.6927 14.7417 55.6543 14.7682 55.6154C14.7771 55.6022 14.7861 55.589 14.7954 55.576C14.8052 55.5625 14.8153 55.5493 14.8253 55.5362L14.8254 55.5361C14.8544 55.4981 14.8831 55.4605 14.9035 55.4164C14.9205 55.3797 14.9291 55.3401 14.9378 55.3002C14.9415 55.2835 14.9451 55.2667 14.9494 55.2501L14.9569 55.2227C14.9737 55.1618 14.9901 55.1022 14.9926 55.0378C14.9928 55.0314 14.9945 55.0256 14.9962 55.0198C14.998 55.0135 14.9998 55.0073 14.9998 55.0003V36.0001H17.0002V55.0003C17.0002 55.007 17.002 55.0131 17.0038 55.0191C17.0056 55.0251 17.0074 55.0311 17.0074 55.0378C17.0099 55.1022 17.0263 55.1618 17.0431 55.2227L17.0506 55.2501C17.0548 55.2664 17.0583 55.2828 17.0619 55.2991C17.0708 55.3394 17.0795 55.3793 17.097 55.4164C17.1171 55.4608 17.146 55.4986 17.1752 55.5368L17.1752 55.5368C17.185 55.5497 17.1949 55.5627 17.2046 55.576C17.2139 55.589 17.2229 55.6022 17.2318 55.6154L17.2319 55.6154C17.2583 55.6543 17.2845 55.6928 17.3188 55.725C17.3494 55.7535 17.3851 55.7749 17.4214 55.7965L17.4214 55.7965L17.4215 55.7965C17.4356 55.805 17.4498 55.8134 17.4638 55.8224L17.4883 55.8386C17.5402 55.8731 17.5913 55.9072 17.6509 55.9299C17.6568 55.9321 17.6618 55.9356 17.6666 55.939C17.6718 55.9427 17.677 55.9464 17.6834 55.9484L17.6874 55.9498C17.8125 55.9919 20.6738 56.9548 22.5526 57.895C22.6242 57.9297 22.6914 57.965 22.7558 58.0002H9.24416ZM6.27112 26.0002H25.7289C24.9482 30.2461 22.4596 34.0003 17.9998 34.0003H14.0002C9.5404 34.0003 7.05176 30.2461 6.27112 26.0002ZM9.75712 6.00032H22.2429C23.0532 8.9056 25.9999 19.6929 25.9999 23.0002C25.9999 23.3323 25.9898 23.6661 25.9702 24.0004H6.02976C6.01016 23.6661 6.00008 23.3323 6.00008 23.0002C6.00008 19.6934 8.9468 8.9056 9.75712 6.00032ZM23.4474 56.1058C21.9724 55.3688 20.0197 54.6475 18.9999 54.288V35.9374C23.5068 35.4115 28.0002 31.3157 28.0002 23.0002C28.0002 18.9072 24.1267 5.30312 23.9615 4.72576C23.8389 4.29624 23.4463 4 23 4H9C8.55368 4 8.16112 4.29624 8.03848 4.72576C7.87328 5.30312 3.99976 18.9072 3.99976 23.0002C3.99976 31.3157 8.4932 35.4115 13.0001 35.9374V54.288C11.9803 54.6475 10.0276 55.3688 8.55256 56.1058C6.12328 57.3204 6.00008 58.7299 6.00008 59.0004C6.00008 59.5531 6.44752 60 7.00024 60H24.9998C25.5525 60 25.9999 59.5531 25.9999 59.0004C25.9999 58.7299 25.8767 57.3204 23.4474 56.1058ZM9.8354 21.9865C9.89084 21.996 9.94684 22 10.0012 22C10.4811 22 10.905 21.6533 10.9862 21.1644L12.9865 9.16421C13.0772 8.62045 12.7088 8.10469 12.1644 8.01397C11.6151 7.91541 11.1044 8.29117 11.0136 8.83605L9.01388 20.8363C8.9226 21.38 9.29108 21.8958 9.8354 21.9865ZM57.9998 4.00021L28.9996 4.00414C28.4474 4.00414 28 4.45213 28 5.00429C28 5.55701 28.4474 6.0039 28.9996 6.0039H57.9998V58.0005H28.9996C28.4474 58.0005 28 58.4473 28 59.0001C28 59.5528 28.4474 60.0002 28.9996 60.0002H57.9998C59.2984 60.0002 59.9995 58.9698 59.9995 58.0005V6.0039C59.9995 4.70749 58.9714 4.00413 57.9998 4.00021ZM51.0806 41H49.0808V55H51.0806V41ZM47.0806 47.0004H45.0808V55.0005H47.0806V47.0004ZM55.0974 55H53.0977V45H55.0974V55ZM29.8779 43.6448C31.0007 42.5813 32.4578 42.0012 33.9978 42.0012C34.0544 42.0012 34.1098 42.0023 34.1658 42.004C35.7674 42.0471 37.257 42.7112 38.3591 43.8755C39.4612 45.038 40.0436 46.5607 40.0005 48.1623C39.9568 49.765 39.2921 51.2529 38.1284 52.3556C36.9653 53.4571 35.4505 54.044 33.8405 53.9964C32.2389 53.9532 30.7493 53.2891 29.6478 52.1254C28.5457 50.9623 27.9627 49.4396 28.0064 47.838C28.0495 46.2353 28.7148 44.7463 29.8779 43.6448ZM33.7862 55.9961C33.8606 55.9984 33.9357 55.9995 34.0102 55.9995C36.0637 55.9995 38.0069 55.2256 39.5038 53.8076C41.055 52.3382 41.9414 50.353 41.9997 48.2172C42.0574 46.0813 41.2801 44.0508 39.8112 42.499C38.3418 40.9484 36.3566 40.063 34.2202 40.0042C32.0804 39.9348 30.0538 40.7227 28.5031 42.1927C26.9519 43.6621 26.0654 45.6479 26.0072 47.7832C25.949 49.919 26.7268 51.9496 28.1957 53.5013C29.6651 55.052 31.6503 55.9379 33.7862 55.9961ZM34.0035 52.0002C36.2127 52.0002 38.0036 50.2093 38.0036 48.0001C38.0036 45.7909 36.2127 44 34.0035 44V48.0001H30.0034C30.0034 50.2093 31.7943 52.0002 34.0035 52.0002ZM39.5775 15.3073C38.6759 16.0672 37.4741 16.7364 35.6228 16.8467C35.872 20.2045 38.6776 22.8628 42.0981 22.8628C45.5169 22.8628 48.3213 20.2073 48.5733 16.8523C46.9656 16.7627 45.5964 16.2609 44.4237 15.3179C43.7641 15.6024 42.9929 15.8628 42.0981 15.8628C41.3409 15.8628 40.4925 15.6696 39.5775 15.3073ZM48.4059 14.82C47.7104 11.9797 45.1501 9.86237 42.0981 9.86237C39.0405 9.86237 36.4757 11.9881 35.7863 14.8374C37.0911 14.7058 37.8891 14.1906 38.6866 13.4212C38.6887 13.4193 38.6911 13.4181 38.6935 13.4168C38.696 13.4155 38.6985 13.4142 38.7006 13.4122C38.7507 13.3658 38.8091 13.3343 38.8678 13.3026L38.9021 13.284C38.9185 13.2746 38.9342 13.2638 38.9499 13.253L38.95 13.253L38.95 13.253C38.9766 13.2347 39.0031 13.2165 39.0326 13.2056C39.0673 13.1926 39.1041 13.1884 39.141 13.1842C39.1613 13.182 39.1817 13.1797 39.2017 13.1759C39.2109 13.1742 39.22 13.1723 39.2291 13.1704C39.2389 13.1683 39.2487 13.1662 39.2585 13.164L39.2586 13.164C39.3086 13.1528 39.3583 13.1418 39.4095 13.1434C39.4386 13.1441 39.467 13.1521 39.4956 13.1601C39.5138 13.1652 39.5321 13.1704 39.5506 13.1736L39.5905 13.1803C39.6577 13.1913 39.7243 13.2021 39.7869 13.2302C39.79 13.2316 39.793 13.232 39.796 13.2324C39.7991 13.2329 39.802 13.2333 39.8049 13.2347C40.6824 13.6457 41.4759 13.8625 42.0981 13.8625C42.7818 13.8625 43.3637 13.6144 44.174 13.2358C44.1767 13.2343 44.1797 13.2339 44.1827 13.2336C44.1853 13.2332 44.1879 13.2329 44.1902 13.2319C44.256 13.2024 44.3256 13.1908 44.3957 13.1792L44.4288 13.1736C44.4472 13.1704 44.4654 13.1653 44.4836 13.1602C44.5125 13.1522 44.5415 13.1441 44.571 13.1434C44.6171 13.1418 44.662 13.1517 44.7072 13.1616C44.7269 13.1659 44.7466 13.1703 44.7665 13.1736C44.7875 13.1776 44.8088 13.18 44.83 13.1825C44.8697 13.1871 44.9092 13.1917 44.9468 13.2056C44.9744 13.216 44.9992 13.2329 45.0242 13.25C45.0408 13.2613 45.0574 13.2727 45.075 13.2823L45.1107 13.3018C45.1696 13.3337 45.2284 13.3656 45.2783 13.4122C45.2805 13.4142 45.2829 13.4154 45.2853 13.4167C45.2877 13.4179 45.2901 13.4192 45.2923 13.4212C46.1726 14.2696 47.1644 14.7008 48.4059 14.82ZM42.0981 7.86261C46.7853 7.86261 50.5983 11.6762 50.5983 16.3623C50.5983 21.0489 46.7853 24.8625 42.0981 24.8625C37.4114 24.8625 33.5984 21.0489 33.5984 16.3623C33.5984 11.6762 37.4114 7.86261 42.0981 7.86261ZM37.782 26.9609C36.4749 27.2823 32.9643 28.2758 30.7383 30.1311C30.0974 30.665 30.0988 30.9148 30.1038 31.8432L30.1038 31.8447L30.0999 34.8614L54.0931 34.8412L54.0981 31.8603C54.0981 30.966 54.0981 30.6642 53.4581 30.1311C51.2253 28.2696 47.7203 27.2807 46.4144 26.9603L42.8052 30.5695C42.4143 30.9604 41.7815 30.9604 41.3912 30.5695L37.782 26.9609ZM28.0979 35.8615L28.1041 31.8615L28.1041 31.8606C28.0979 30.812 28.0916 29.732 29.4581 28.5939C32.6165 25.9619 37.6873 24.9247 37.9018 24.8822C38.2305 24.8195 38.5682 24.9191 38.8051 25.1555L42.0979 28.4483L45.3913 25.1555C45.6276 24.918 45.9653 24.8183 46.2945 24.8822C46.509 24.9247 51.5798 25.9619 54.7382 28.5939C56.0979 29.7279 56.0979 30.8126 56.0979 31.8626L56.0912 35.8419C56.0906 36.393 55.6437 36.8399 55.0921 36.8399L29.0992 36.8623H29.0981C28.8332 36.8623 28.5784 36.757 28.3908 36.5694C28.2032 36.3812 28.0979 36.1264 28.0979 35.8615Z"></path></svg>