<svg width="64" height="64" viewBox="0 0 64 64" fill="none" xmlns="http://www.w3.org/2000/svg">
<path d="M36.381 10.8786H36.3975C38.1509 10.8786 39.7183 11.7906 40.5968 13.2178C41.2103 14.2138 42.0161 15.0592 42.9923 15.7025C44.5786 16.7485 45.5461 18.8608 45.5461 20.6332C45.5461 20.9073 45.5246 21.1913 45.4849 21.475C45.2488 23.1415 45.4071 24.818 45.9376 26.4155C46.1935 27.187 46.2576 28.03 46.105 28.8912C45.7036 31.1601 43.8229 32.7796 41.5229 32.9053C40.142 32.9809 39.0609 32.453 38.0777 31.4682C41.2753 29.5143 43.4239 25.9827 43.4239 21.9459C43.4239 21.059 43.3201 20.1755 43.1151 19.3205C43.0406 19.0117 42.7549 18.7996 42.437 18.7992L33.8375 18.7913C32.2416 18.7897 30.8207 17.7813 30.2927 16.2756L29.7949 14.8575C29.6965 14.5763 29.4307 14.3882 29.133 14.3882C28.8349 14.3882 28.5691 14.5763 28.4707 14.8575L27.9733 16.2756C27.4449 17.7809 26.0244 18.7889 24.4289 18.7901L22.3109 18.7913C21.9938 18.7918 21.7077 19.0034 21.6337 19.3123C21.4274 20.1697 21.3228 21.0557 21.3228 21.9459C21.3228 25.9608 23.4487 29.4762 26.6181 31.4367C25.4993 32.5778 24.1933 33.1174 22.5598 32.8412C21.3071 32.6291 20.2007 31.9589 19.4557 30.9295C18.4262 29.5068 18.2509 27.8543 18.7255 26.4259C19.2721 24.7812 19.447 23.0526 19.2382 21.3319C19.2093 21.0946 19.194 20.8589 19.194 20.6332C19.194 18.7579 20.2511 16.5546 21.9719 15.5665C22.929 15.0175 23.6752 14.1894 24.2458 13.2447C25.0925 11.8423 26.5962 10.9224 28.2962 10.8786H36.3975H36.381ZM22.726 21.9459C22.726 21.3567 22.7785 20.7696 22.8818 20.1945L24.9267 20.1933C26.8202 20.1921 28.5062 18.9956 29.133 17.2095C29.7594 18.9956 31.4454 20.1921 33.3389 20.1941L41.8665 20.202C41.969 20.775 42.0207 21.3596 42.0207 21.9459C42.0207 27.3139 37.6928 31.6811 32.3735 31.6811C27.0538 31.6811 22.726 27.3139 22.726 21.9459ZM28.0424 9.6246C25.9702 9.75359 24.1432 10.9207 23.1208 12.6642C22.6735 13.427 22.0132 14.0467 21.2537 14.499C19.2126 15.7141 17.9297 18.3428 17.9297 20.6332C17.9297 20.7758 17.9346 20.9201 17.9437 21.0657C18.0521 22.7785 17.9929 24.5117 17.4861 26.1514C16.9544 27.8708 17.1673 29.8351 18.3435 31.5529C19.323 32.9834 20.9114 33.9174 22.6325 34.1286C24.7295 34.3862 26.4097 33.5957 27.7583 32.0532C29.1648 32.7089 30.7247 33.0847 32.3735 33.0847C33.9983 33.0847 35.5372 32.7205 36.928 32.0825C38.1067 33.4146 39.4491 34.177 41.2455 34.177C44.6671 34.177 47.4508 31.3929 47.4508 27.9713C47.4508 27.1626 47.2899 26.3676 46.9873 25.6304C46.5119 24.4703 46.4651 23.1833 46.688 21.9492C46.7674 21.5105 46.8104 21.0632 46.8104 20.6332C46.8104 18.4316 45.6614 15.9328 43.7666 14.6636C42.9092 14.0893 42.1807 13.353 41.6296 12.4802C40.5092 10.7053 38.54 9.5721 36.3376 9.6122L28.0424 9.6246Z" fill="#2D2926"/>
<path fill-rule="evenodd" clip-rule="evenodd" d="M32.75 49.053L31.7528 47.9601C31.0855 47.2288 30.4223 46.8938 30.0757 46.8584C29.3814 46.7876 28.6927 47.1913 28.325 47.85C27.9741 48.4785 28.0311 49.0977 28.4984 49.5499C28.7626 49.8056 29.0255 50.0612 29.2876 50.3161C30.4265 51.4236 31.551 52.517 32.7097 53.5441C34.1624 52.2722 35.6096 50.8971 37.0016 49.5499C37.4689 49.0977 37.5259 48.4785 37.175 47.85C36.8073 47.1913 36.1186 46.7876 35.4243 46.8584C35.0777 46.8938 34.4146 47.2287 33.7473 47.9601L32.75 49.053ZM32.5492 55.1925C31.0971 53.9591 29.7091 52.6093 28.3383 51.2761C28.0782 51.0232 27.8187 50.7708 27.5595 50.52C25.5632 48.5879 27.5693 45.2457 30.2128 45.5154C30.7434 45.5695 31.3266 45.8427 31.8801 46.2563C32.1835 46.4831 32.478 46.752 32.75 47.0501C33.0221 46.752 33.3166 46.483 33.62 46.2563C34.1735 45.8427 34.7566 45.5695 35.2873 45.5154C37.9307 45.2457 39.9368 48.5879 37.9405 50.52C36.3153 52.0928 34.5932 53.7251 32.8657 55.1924C32.8204 55.2308 32.7639 55.25 32.7074 55.25C32.6509 55.25 32.5944 55.2309 32.5492 55.1925Z" fill="#2D2926"/>
<path fill-rule="evenodd" clip-rule="evenodd" d="M50 54.0975C45.0924 58.0999 38.8265 60.5 32 60.5C25.6277 60.5 19.7439 58.4087 14.9974 54.8749H15.125V45.1889C15.125 43.1524 16.3027 41.2996 18.1467 40.4353L26.2498 36.6369L31.3872 41.1322C31.9528 41.6271 32.7972 41.6271 33.3628 41.1322L38.5049 36.6328L46.9225 40.459C48.7967 41.3109 50 43.1797 50 45.2384V54.0975ZM51.5 52.7847V45.2384C51.5 42.5914 49.9529 40.1888 47.5432 39.0934L39.1256 35.2673C38.5895 35.0236 37.9604 35.1162 37.5172 35.504L32.375 40.0034L27.2375 35.5081C26.7895 35.1161 26.1521 35.0261 25.6131 35.2788L17.5101 39.0771C15.1392 40.1884 13.625 42.5705 13.625 45.1889V53.7863C7.43281 48.5584 3.5 40.7385 3.5 32C3.5 16.2599 16.2599 3.5 32 3.5C47.7401 3.5 60.5 16.2599 60.5 32C60.5 40.1968 57.0396 47.5855 51.5 52.7847ZM51.5 54.7988C57.927 49.2965 62 41.1239 62 32C62 15.4315 48.5685 2 32 2C15.4315 2 2 15.4315 2 32C2 48.5685 15.4315 62 32 62C39.4024 62 46.1787 59.319 51.4107 54.8749H51.5V54.7988Z" fill="#2D2926"/>
</svg>
