<svg width="64" height="64" viewBox="0 0 64 64" fill="none" xmlns="http://www.w3.org/2000/svg">
<path fill-rule="evenodd" clip-rule="evenodd" d="M37.7129 39.2593C37.7129 38.8451 38.0487 38.5093 38.4629 38.5093H43.6296C44.0438 38.5093 44.3796 38.8451 44.3796 39.2593C44.3796 39.6735 44.0438 40.0093 43.6296 40.0093H38.4629C38.0487 40.0093 37.7129 39.6735 37.7129 39.2593Z" fill="#2D2926"/>
<path fill-rule="evenodd" clip-rule="evenodd" d="M37.7129 43.2778C37.7129 42.8636 38.0487 42.5278 38.4629 42.5278H43.6296C44.0438 42.5278 44.3796 42.8636 44.3796 43.2778C44.3796 43.692 44.0438 44.0278 43.6296 44.0278H38.4629C38.0487 44.0278 37.7129 43.692 37.7129 43.2778Z" fill="#2D2926"/>
<path fill-rule="evenodd" clip-rule="evenodd" d="M19.9167 44.1389C19.9167 43.7247 20.2525 43.3889 20.6667 43.3889H25.8334C26.2476 43.3889 26.5834 43.7247 26.5834 44.1389C26.5834 44.5531 26.2476 44.8889 25.8334 44.8889H20.6667C20.2525 44.8889 19.9167 44.5531 19.9167 44.1389Z" fill="#2D2926"/>
<path fill-rule="evenodd" clip-rule="evenodd" d="M19.9167 48.4446C19.9167 48.0304 20.2525 47.6946 20.6667 47.6946H25.8334C26.2476 47.6946 26.5834 48.0304 26.5834 48.4446C26.5834 48.8588 26.2476 49.1946 25.8334 49.1946H20.6667C20.2525 49.1946 19.9167 48.8588 19.9167 48.4446Z" fill="#2D2926"/>
<path fill-rule="evenodd" clip-rule="evenodd" d="M32 60.5C32.7635 60.5 33.5201 60.47 34.2685 60.411V32.8722C34.2685 31.9212 34.5698 30.9946 35.1292 30.2254L37.5695 26.87C37.6627 26.7418 37.7129 26.5874 37.7129 26.4289V23.1936L37.7129 23.1851L37.7129 23.1765V15.5C37.7129 14.2574 38.7203 13.25 39.9629 13.25H42.1296C43.3722 13.25 44.3796 14.2574 44.3796 15.5V26.4289C44.3796 26.5874 44.4298 26.7418 44.5231 26.87L46.9634 30.2254C47.5227 30.9946 47.8241 31.9212 47.8241 32.8722V55.707C55.4672 50.5952 60.5 41.8853 60.5 32C60.5 16.2599 47.7401 3.5 32 3.5C16.2599 3.5 3.5 16.2599 3.5 32C3.5 41.2566 7.91304 49.4826 14.75 54.6886V42.9907C14.75 39.2371 16.0992 35.6702 17.3946 32.6655C17.6234 32.1348 17.8486 31.6261 18.065 31.1369L18.0651 31.1368C18.4721 30.2171 18.8485 29.3666 19.1611 28.5692C19.6421 27.3422 19.9167 26.3703 19.9167 25.625V15.4967C19.9167 14.2519 20.9262 13.25 22.1667 13.25H24.3333C25.5737 13.25 26.5833 14.2516 26.5833 15.4965V17.433L26.5834 17.4443L26.5833 17.4557V25.625C26.5833 26.2984 26.8396 27.2157 27.2995 28.4013C27.6099 29.2014 27.9892 30.0671 28.4014 31.0079C28.5943 31.4483 28.7945 31.9051 28.9982 32.3794C30.2559 35.3081 31.5996 38.7915 31.7493 42.3854C31.8937 45.8503 31.8935 50.3874 31.8576 54.049C31.8396 55.8818 31.8127 57.4988 31.7902 58.6578C31.779 59.2373 31.7689 59.7023 31.7616 60.0226C31.7579 60.1828 31.755 60.3068 31.7529 60.3908L31.7503 60.4989C31.8334 60.4996 31.9167 60.5 32 60.5ZM25.0833 15.4965V16.6943H21.4167V15.4967C21.4167 15.0846 21.7503 14.75 22.1667 14.75H24.3333C24.7498 14.75 25.0833 15.0846 25.0833 15.4965ZM21.4167 25.625V18.1943H25.0833V25.625C25.0833 26.5492 25.3998 27.6242 25.8267 28.75H20.6983C21.115 27.6375 21.4167 26.5703 21.4167 25.625ZM20.0906 30.25C19.8786 30.7455 19.6511 31.2598 19.4183 31.786L19.4183 31.786L19.4182 31.7862L19.4182 31.7863L19.418 31.7867L19.4173 31.7883C19.204 32.2703 18.9863 32.7624 18.7721 33.2593C17.4842 36.2465 16.25 39.5685 16.25 42.9907V55.7563C20.307 58.4514 25.094 60.135 30.2511 60.4472L30.2534 60.3544C30.2554 60.2711 30.2583 60.1478 30.262 59.9884C30.2692 59.6696 30.2793 59.2063 30.2905 58.6287C30.3129 57.4734 30.3398 55.8613 30.3577 54.0343C30.3935 50.3765 30.3933 45.8719 30.2507 42.4479C30.1134 39.1529 28.8737 35.891 27.6199 32.9713C27.4278 32.5239 27.234 32.0817 27.0442 31.6484L27.0437 31.6471L27.0436 31.647L27.0435 31.6468L27.0434 31.6466C26.834 31.1686 26.6294 30.7014 26.4368 30.25H20.0906ZM46.3241 56.6442C43.1451 58.4959 39.5753 59.7502 35.7685 60.2531V32.8722C35.7685 32.2382 35.9694 31.6205 36.3423 31.1077L38.7826 27.7523C39.0623 27.3677 39.2129 26.9044 39.2129 26.4289V23.9351H42.8796V26.4289C42.8796 26.9044 43.0303 27.3677 43.3099 27.7523L45.7503 31.1077C46.1232 31.6205 46.3241 32.2382 46.3241 32.8722V56.6442ZM32 62C48.5685 62 62 48.5685 62 32C62 15.4315 48.5685 2 32 2C15.4315 2 2 15.4315 2 32C2 48.5685 15.4315 62 32 62ZM39.2129 15.5C39.2129 15.0858 39.5487 14.75 39.9629 14.75H42.1296C42.5438 14.75 42.8796 15.0858 42.8796 15.5V22.4351H39.2129V15.5Z" fill="#2D2926"/>
</svg>
