<svg width="64" height="64" viewBox="0 0 64 64" fill="none" xmlns="http://www.w3.org/2000/svg">
<path fill-rule="evenodd" clip-rule="evenodd" d="M32 60.5C47.7401 60.5 60.5 47.7401 60.5 32C60.5 16.2599 47.7401 3.5 32 3.5C16.2599 3.5 3.5 16.2599 3.5 32C3.5 47.7401 16.2599 60.5 32 60.5ZM32 62C48.5685 62 62 48.5685 62 32C62 15.4315 48.5685 2 32 2C15.4315 2 2 15.4315 2 32C2 48.5685 15.4315 62 32 62Z" fill="#2D2926"/>
<path d="M52.8652 27.7915L46.6901 33.9666C46.4021 34.2546 45.9337 34.2575 45.6457 33.9695C45.3577 33.6815 45.3577 33.216 45.6457 32.928L51.8237 26.75C52.1117 26.462 52.5772 26.462 52.8652 26.75C53.1532 27.038 53.1532 27.5035 52.8652 27.7915Z" fill="#E8927C"/>
<path d="M51.824 33.9695L45.6489 27.7944C45.3609 27.5064 45.3579 27.038 45.646 26.75C45.934 26.4619 46.3995 26.4619 46.6875 26.75L52.8655 32.928C53.1535 33.216 53.1535 33.6815 52.8655 33.9695C52.5775 34.2575 52.112 34.2575 51.824 33.9695Z" fill="#E8927C"/>
<path fill-rule="evenodd" clip-rule="evenodd" d="M48.2141 30.3596L45.6489 27.7944C45.3608 27.5064 45.3579 27.038 45.646 26.7499C45.934 26.4619 46.3994 26.4619 46.6875 26.7499L49.2556 29.3181L51.8237 26.75C52.1117 26.462 52.5772 26.462 52.8652 26.75C53.1532 27.038 53.1532 27.5035 52.8652 27.7915L50.2971 30.3596L52.8655 32.928C53.1535 33.216 53.1535 33.6815 52.8655 33.9695C52.5775 34.2575 52.112 34.2575 51.824 33.9695L49.2556 31.4011L46.6901 33.9666C46.4021 34.2546 45.9337 34.2575 45.6457 33.9695C45.3577 33.6815 45.3577 33.216 45.6457 32.928L48.2141 30.3596Z" fill="#2D2926"/>
<path fill-rule="evenodd" clip-rule="evenodd" d="M42.875 17.75C42.875 17.3358 42.5392 17 42.125 17C41.7108 17 41.375 17.3358 41.375 17.75V18.951L25.5223 23.375H16.25C15.4216 23.375 14.75 24.0466 14.75 24.875V26H11.75C10.9216 26 10.25 26.6716 10.25 27.5V33.5C10.25 34.3284 10.9216 35 11.75 35H14.75V36.125C14.75 36.9534 15.4216 37.625 16.25 37.625H17.75V46.625C17.75 47.4534 18.4216 48.125 19.25 48.125H21.875C22.7034 48.125 23.375 47.4534 23.375 46.625V37.625H25.5224L41.375 42.049V42.875C41.375 43.2892 41.7108 43.625 42.125 43.625C42.5392 43.625 42.875 43.2892 42.875 42.875V17.75ZM41.375 40.4917V20.5083L26.375 24.6943V36.2253C26.4344 36.2597 26.4886 36.3019 26.5362 36.3506L41.375 40.4917ZM14.75 27.5V33.5H11.75V27.5H14.75ZM19.25 37.625V46.625H21.875V37.625H19.25ZM18.5 36.125H22.625H24.875V24.875H16.25V36.125H18.5Z" fill="#2D2926"/>
</svg>
